HIERARCHY
ROOT Hips
{
	OFFSET	0.00	0.00	0.00
	CHANNELS 6 Xposition Yposition Zposition Zrotation Xrotation Yrotation
	JOINT LeftUpLeg
	{
		OFFSET	 0.126116	-0.014019	-0.065224
		CHANNELS 3 Zrotation Xrotation Yrotation
		JOINT LeftLeg
		{
			OFFSET	 0.000000	 0.000000	 0.569914
			CHANNELS 3 Zrotation Xrotation Yrotation
			JOINT LeftFoot
			{
				OFFSET	 0.000000	 0.000000	 0.544423
				CHANNELS 3 Zrotation Xrotation Yrotation
				JOINT LeftToeBase
				{
					OFFSET	 0.000000	 0.000000	 0.207117
					CHANNELS 3 Zrotation Xrotation Yrotation
					End Site
					{
						OFFSET	 0.000000	 0.000000	 0.207117
					}
				}
			}
		}
	}
	JOINT RightUpLeg
	{
		OFFSET	-0.124023	-0.008373	-0.065224
		CHANNELS 3 Zrotation Xrotation Yrotation
		JOINT RightLeg
		{
			OFFSET	 0.000000	 0.000000	 0.570047
			CHANNELS 3 Zrotation Xrotation Yrotation
			JOINT RightFoot
			{
				OFFSET	 0.000000	 0.000000	 0.544354
				CHANNELS 3 Zrotation Xrotation Yrotation
				JOINT RightToeBase
				{
					OFFSET	 0.000000	 0.000000	 0.207540
					CHANNELS 3 Zrotation Xrotation Yrotation
					End Site
					{
						OFFSET	 0.000000	 0.000000	 0.207540
					}
				}
			}
		}
	}
	JOINT Spine
	{
		OFFSET	 0.000184	-0.007763	 0.117403
		CHANNELS 3 Zrotation Xrotation Yrotation
		JOINT Spine1
		{
			OFFSET	 0.000000	 0.000000	 0.137269
			CHANNELS 3 Zrotation Xrotation Yrotation
			JOINT Spine2
			{
				OFFSET	 0.000000	 0.000000	 0.156879
				CHANNELS 3 Zrotation Xrotation Yrotation
				JOINT LeftShoulder
				{
					OFFSET	 0.080501	-0.002496	 0.160144
					CHANNELS 3 Zrotation Xrotation Yrotation
					JOINT LeftArm
					{
						OFFSET	 0.000000	 0.000000	 0.164363
						CHANNELS 3 Zrotation Xrotation Yrotation
						JOINT LeftForeArm
						{
							OFFSET	 0.000000	 0.000000	 0.364576
							CHANNELS 3 Zrotation Xrotation Yrotation
							JOINT LeftHand
							{
								OFFSET	 0.000000	 0.000000	 0.360812
								CHANNELS 3 Zrotation Xrotation Yrotation
								JOINT LeftHandIndex1
								{
									OFFSET	 0.000000	 0.000000	 0.086006
									CHANNELS 3 Zrotation Xrotation Yrotation
									JOINT LeftHandIndex2
									{
										OFFSET	 0.000000	 0.000000	 0.047236
										CHANNELS 3 Zrotation Xrotation Yrotation
										JOINT LeftHandIndex3
										{
											OFFSET	-0.004284	-0.000551	 0.038166
											CHANNELS 3 Zrotation Xrotation Yrotation
											End Site
											{
												OFFSET	-0.004284	-0.000551	 0.038166
											}
										}
									}
								}
							}
						}
					}
				}
				JOINT Neck
				{
					OFFSET	 0.000000	 0.000000	 0.176489
					CHANNELS 3 Zrotation Xrotation Yrotation
					JOINT Head
					{
						OFFSET	 0.000000	-0.001747	 0.077940
						CHANNELS 3 Zrotation Xrotation Yrotation
						End Site
						{
							OFFSET	 0.000000	-0.001747	 0.077940
						}
					}
				}
				JOINT RightShoulder
				{
					OFFSET	-0.080363	 0.000306	 0.159706
					CHANNELS 3 Zrotation Xrotation Yrotation
					JOINT RightArm
					{
						OFFSET	 0.000000	 0.000000	 0.164196
						CHANNELS 3 Zrotation Xrotation Yrotation
						JOINT RightForeArm
						{
							OFFSET	 0.000000	 0.000000	 0.365611
							CHANNELS 3 Zrotation Xrotation Yrotation
							JOINT RightHand
							{
								OFFSET	 0.000000	 0.000000	 0.360648
								CHANNELS 3 Zrotation Xrotation Yrotation
								JOINT RightHandIndex1
								{
									OFFSET	 0.000000	 0.000000	 0.069977
									CHANNELS 3 Zrotation Xrotation Yrotation
									JOINT RightHandIndex2
									{
										OFFSET	 0.000000	 0.000000	 0.052305
										CHANNELS 3 Zrotation Xrotation Yrotation
										JOINT RightHandIndex3
										{
											OFFSET	 0.009002	-0.000782	 0.042196
											CHANNELS 3 Zrotation Xrotation Yrotation
											End Site
											{
												OFFSET	 0.009002	-0.000782	 0.042196
											}
										}
									}
								}
							}
						}
					}
				}
			}
		}
	}
}
MOTION
Frames:    4
Frame Time: 0.03333334
-0.589434	 6.021235	-1.315353	 13.065860	 0.662491	 3.701305	 5.052808	-3.983679	 176.478900	-11.244180	-33.746570	-5.157301	 171.911100	 86.580980	 179.434200	-2.377564	 30.161870	-0.037385	 1.764842	-12.665480	 178.953100	 3.657930	-47.631610	 5.720304	-175.380900	 82.110120	-178.677600	 2.403718	 22.114510	-0.130794	-3.107733	 0.817643	-1.927889	-4.170014	-1.922281	-0.459328	-4.590642	-3.940182	-0.460661	-91.809810	 77.618580	 179.123500	 36.776230	 69.876300	-39.810600	-7.974696	-4.000749	-19.870320	 5.905803	-2.216989	-5.334788	-3.812334	 37.924440	-2.927599	-2.450526	 36.184240	 0.754587	-1.378229	 35.397820	-2.634230	 0.535727	 6.071193	-3.202088	-0.854358	-13.405260	-1.914841	 89.765460	 79.257290	-179.645800	-36.418610	 70.331060	 39.112290	 4.226906	-7.822978	 30.715900	-11.313680	-3.196197	 9.596555	 6.437017	 35.671460	-0.771858	 2.830251	 35.756010	-7.813440	-2.350882	 35.473990	 5.254307
-0.589135	 6.030137	-1.316169	 13.389750	 0.767141	 3.735145	 5.015225	-4.260011	 176.524900	-11.040600	-34.113560	-5.113965	 171.968400	 86.231680	 179.537400	-2.376015	 30.453960	-0.043871	 1.846708	-12.832730	 178.972500	 3.798770	-48.019540	 5.930176	-176.009800	 81.654330	-177.953600	 2.403588	 22.189100	-0.129290	-3.114697	 0.872571	-2.009433	-4.198243	-1.878487	-0.490365	-4.666519	-3.892621	-0.466361	-91.809080	 77.601770	 179.157400	 36.590140	 69.797060	-39.592870	-8.083209	-4.039050	-20.446300	 5.778206	-2.207181	-5.338142	-3.812334	 37.924440	-2.927599	-2.450526	 36.184240	 0.754587	-1.378229	 35.397820	-2.634230	 0.468124	 5.819387	-3.424406	-0.909103	-13.122100	-1.673830	 89.764220	 79.271690	-179.624800	-36.259070	 70.464200	 39.034100	 4.263018	-7.740954	 30.144800	-11.387060	-3.198635	 9.595182	 6.437017	 35.671460	-0.771858	 2.830251	 35.756010	-7.813440	-2.350882	 35.473990	 5.254307
-0.586448	 6.034430	-1.317089	 13.434060	 0.827871	 3.699994	 5.046540	-4.559966	 176.639100	-10.831650	-34.556850	-5.029087	 172.187200	 85.860710	 179.558500	-2.374618	 30.710350	-0.049574	 2.019912	-13.427600	 179.028000	 4.229243	-49.244400	 6.530197	-176.229900	 81.222910	-177.478200	 2.402387	 22.823780	-0.116433	-3.114717	 1.078577	-1.923710	-4.275816	-1.892372	-0.546974	-4.806418	-3.919145	-0.481463	-91.803930	 77.703970	 179.204000	 36.609790	 69.603250	-39.836440	-8.173011	-4.042775	-20.848700	 5.630466	-2.196098	-5.341551	-3.812334	 37.924440	-2.927599	-2.450526	 36.184240	 0.754587	-1.378229	 35.397820	-2.634230	 0.308391	 5.552799	-3.398697	-1.064234	-12.994560	-1.837319	 89.765750	 79.164000	-179.617300	-36.379260	 70.548290	 39.429630	 4.208347	-7.718276	 29.621190	-11.558950	-3.203080	 9.592788	 6.437017	 35.671460	-0.771858	 2.830251	 35.756010	-7.813440	-2.350882	 35.473990	 5.254307
-0.581529	 6.035027	-1.318150	 13.209390	 0.847515	 3.407230	 5.408246	-4.765750	 177.010700	-10.838300	-34.910990	-4.829419	 173.399400	 85.549260	 178.740000	-2.373644	 30.883220	-0.053453	 2.258697	-14.999460	 179.401600	 4.815844	-52.045440	 7.542101	-176.185200	 81.192830	-177.338000	 2.397426	 24.866800	-0.074525	-3.105192	 1.609987	-1.512074	-4.425745	-1.943228	-0.528954	-5.018794	-4.008283	-0.506639	-91.795300	 77.898700	 179.288800	 36.745400	 69.303190	-40.477710	-8.231048	-4.021080	-21.014450	 5.508029	-2.189475	-5.343876	-3.812334	 37.924440	-2.927599	-2.450526	 36.184240	 0.754587	-1.378229	 35.397820	-2.634230	 0.044836	 5.502946	-3.159510	-1.303716	-13.217870	-2.283856	 89.771170	 78.957050	-179.668800	-36.609860	 70.618840	 40.061050	 4.224600	-7.681518	 29.162310	-11.681980	-3.206956	 9.590630	 6.437017	 35.671460	-0.771858	 2.830251	 35.756010	-7.813440	-2.350882	 35.473990	 5.254307
